<svg width="24" height="25" viewBox="0 0 24 25" fill="none" xmlns="http://www.w3.org/2000/svg">
<path d="M3.83301 4.5H8.32301L9.77001 8.118L7.44501 9.668C7.3081 9.75935 7.19584 9.88308 7.11822 10.0282C7.04059 10.1734 6.99999 10.3354 7.00001 10.5C7.00301 10.594 7.00001 10.501 7.00001 10.501V10.522C7.00051 10.5667 7.00251 10.6114 7.00601 10.656C7.01135 10.7387 7.02301 10.8487 7.04101 10.986C7.08001 11.256 7.15501 11.628 7.30101 12.066C7.59501 12.946 8.17101 14.085 9.29301 15.207C10.415 16.329 11.554 16.905 12.433 17.199C12.872 17.345 13.243 17.419 13.515 17.459C13.6684 17.4813 13.823 17.4947 13.978 17.499L13.991 17.5H13.999C13.999 17.5 14.111 17.494 14 17.5C14.1857 17.4999 14.3676 17.4481 14.5255 17.3504C14.6834 17.2528 14.811 17.1131 14.894 16.947L15.564 15.607L20 16.347V20.667C17.889 20.972 12.187 21.273 7.70701 16.793C3.22701 12.313 3.52701 6.61 3.83301 4.5ZM9.07301 10.986L10.88 9.782C11.2618 9.52737 11.5443 9.14922 11.6803 8.71096C11.8163 8.27271 11.7975 7.80102 11.627 7.375L10.18 3.757C10.0315 3.38591 9.77525 3.06781 9.44425 2.84376C9.11325 2.61971 8.72271 2.49997 8.32301 2.5H3.78101C2.87201 2.5 2.01701 3.131 1.86801 4.117C1.52801 6.359 1.06701 12.981 6.29301 18.207C11.519 23.433 18.141 22.971 20.383 22.632C21.369 22.482 22 21.628 22 20.719V16.347C22.0001 15.8736 21.8322 15.4155 21.5262 15.0542C21.2202 14.6929 20.796 14.4519 20.329 14.374L15.893 13.635C15.4711 13.5646 15.0377 13.6313 14.6565 13.8253C14.2753 14.0193 13.9664 14.3304 13.775 14.713L13.429 15.406C13.3067 15.3756 13.1856 15.3406 13.066 15.301C12.446 15.095 11.585 14.671 10.707 13.793C9.82901 12.915 9.40501 12.054 9.19901 11.433C9.15045 11.286 9.10874 11.1369 9.07401 10.986H9.07301Z" fill="black"/>
</svg>
